

Release info:

General
Format                                   : Matroska
Format version                           : Version 2
File size                                : 697 MiB
Duration                                 : 2h 17mn
Overall bit rate mode                    : Variable
Overall bit rate                         : 706 Kbps
Movie name                               : Race 2 2013 SCAMRip Hindi


Video
ID                                       : 1
Format                                   : MPEG Video
Format version                           : Version 2
Format profile                           : Main@Main
Format settings, BVOP                    : No
Format settings, Matrix                  : Default
Codec ID                                 : V_MPEG2
Codec ID/Info                            : MPEG 1 or 2 Video
Duration                                 : 2h 17mn
Bit rate mode                            : Variable
Bit rate                                 : 564 Kbps
Maximum bit rate                         : 9 672 Kbps
Width                                    : 352 pixels
Height                                   : 288 pixels
Display aspect ratio                     : 4:3
Frame rate mode                          : Constant
Frame rate                               : 25.000 fps
Standard                                 : PAL
Color space                              : YUV
Chroma subsampling                       : 4:2:0
Bit depth                                : 8 bits
Compression mode                         : Lossy
Bits/(Pixel*Frame)                       : 0.223
Stream size                              : 557 MiB (80%)
Title                                    : Race 2 2013 SCAMRip Hindi
Language                                 : Hindi
Default                                  : Yes
Forced                                   : No

Audio
ID                                       : 2
Format                                   : MPEG Audio
Format version                           : Version 1
Format profile                           : Layer 2
Muxing mode                              : Header stripping
Codec ID                                 : A_MPEG/L2
Codec ID/Hint                            : MP2
Duration                                 : 2h 17mn
Bit rate mode                            : Constant
Bit rate                                 : 128 Kbps
Channel(s)                               : 2 channels
Sampling rate                            : 48.0 KHz
Compression mode                         : Lossy
Delay relative to video                  : -192ms
Stream size                              : 126 MiB (18%)
Title                                    : Race 2 2013 SCAMRip Hindi
Language                                 : Hindi
Default                                  : Yes
Forced                                   : No



Source:
credit to original movie ripper NiCkkkDoN (Thanks)

IMDB Info:

Ranvir treads through the world of the Indian mafia in Turkey as he looks to avenge the death of his lover and partner in crime.

Directors: Abbas Alibhai Burmawalla, Mastan Alibhai Burmawalla
Writers: Shiraz Ahmed (screenplay), Kiran Kotrial (dialogue)
Stars: Saif Ali Khan, Anil Kapoor and John Abraham 

Genres: Thriller | Action | Crime | Drama
 
http://www.imdb.com/title/tt1375789/

Screen Shot:
 
http://www.shotpix.com/images/66425585144942779576.png 
http://www.shotpix.com/images/29618500133143379185.png 
http://www.shotpix.com/images/98244331515929006356.png 
http://www.shotpix.com/images/95026432914127652299.png 
http://www.shotpix.com/images/20657160908356533755.png 
http://www.shotpix.com/images/23598765954800240947.png